# xmcd
#
# Track frame offsets:
#	150
#	13453
#	26146
#	38714
#	49219
#	62880
#	75665
#	89403
#	101344
#	112062
#	124108
#	136630
#	149327
#	164244
#	178190
#	192266
#	203920
#	215765
#	229193
#	239946
#	253456
#	267971
#	279362
#	289281
#	299108
#
# Disc length: 4124 seconds
#
# Revision: 2
# Processed by: cddbd v1.5.1PL0 Copyright (c) Steve Scherf et al.
# Submitted via: audiograbber 1.83.01
#
DISCID=a0101a19
DTITLE=Sons Of The Pioneers - Riders In The Sky (Vol. 4 "My Saddle Pals And I" 
DTITLE=4 CD Set)
DYEAR=2005
DGENRE=Country
TTITLE0=The Whiffenpoof Song
TTITLE1=The Old Rugged Cross
TTITLE2=Power In The Blood
TTITLE3=Rounded Up In Glory
TTITLE4=Blue Shadows On The Trail
TTITLE5=(There'll Never Be Another) Pecos Bill
TTITLE6=Home On The Range
TTITLE7=No Rodeo Dough
TTITLE8=The Missouri Is A Devil Of A Woman
TTITLE9=Sentimental Worried And Blue
TTITLE10=Little Gray Home In The West
TTITLE11=Riders In The Sky
TTITLE12=Room Full Of Roses
TTITLE13=Lie Low Little Doggies
TTITLE14=Stampede
TTITLE15=Let's Go West Again
TTITLE16=Land Beyond The Sun
TTITLE17=Wagons West
TTITLE18=Song Of The Wagonmaster
TTITLE19=Old Man Atom
TTITLE20=Diesel Smoke
TTITLE21=Home On The Range
TTITLE22=The River Of No Return
TTITLE23=The Lillies Grow High
TTITLE24=Montana
EXTD=
EXTT0=
EXTT1=
EXTT2=
EXTT3=
EXTT4=
EXTT5=
EXTT6=
EXTT7=
EXTT8=
EXTT9=
EXTT10=
EXTT11=
EXTT12=
EXTT13=
EXTT14=
EXTT15=
EXTT16=
EXTT17=
EXTT18=
EXTT19=
EXTT20=
EXTT21=
EXTT22=
EXTT23=
EXTT24=
PLAYORDER=
